<svg width="225" height="58" viewBox="0 0 225 58" fill="none" xmlns="http://www.w3.org/2000/svg">
<path d="M119.8 8.34465e-07C122.333 13.6 129.333 20.4 140.8 20.4C145.867 20.4 154.533 19.7333 166.8 18.4C179.867 17.0667 189.333 16.4 195.2 16.4C204.8 16.4 212.133 19.0667 217.2 24.4C222.267 29.8667 224.8 37.1333 224.8 46.2V57.8H209V49.6C209 44.4 207.8 40.5333 205.4 38C203.133 35.4667 199.333 34.2 194 34.2C190.133 34.2 185.333 34.4667 179.6 35C174 35.5333 170.2 35.8667 168.2 36C155.4 37.3333 146.067 38 140.2 38C133.133 38 127.2 36.2 122.4 32.6C117.733 29.1333 114.6 23.7333 113 16.4H112.6C111 23.7333 107.8 29.1333 103 32.6C98.2 36.2 92.2667 38 85.2 38C79.3333 38 70 37.3333 57.2 36C55.2 35.8667 51.3333 35.5333 45.6 35C40 34.4667 35.2667 34.2 31.4 34.2C26.0667 34.2 22.2667 35.4667 20 38C17.6 40.5333 16.4 44.4 16.4 49.6V57.8H0.599999V46.2C0.599999 37.1333 3.13333 29.8667 8.2 24.4C13.2667 19.0667 20.6 16.4 30.2 16.4C36.0667 16.4 45.5333 17.0667 58.6 18.4C70.8667 19.7333 79.5333 20.4 84.6 20.4C96.0667 20.4 103.067 13.6 105.6 8.34465e-07L119.8 8.34465e-07Z" fill="#E44805" fill-opacity="0.16"/>
</svg>
