<svg width="14" height="12" viewBox="0 0 14 12" fill="none" xmlns="http://www.w3.org/2000/svg">
<path d="M0.489796 2.20408H13.2245C13.495 2.20408 13.7143 1.98481 13.7143 1.71429V0.489796C13.7143 0.219276 13.495 0 13.2245 0H0.489796C0.219276 0 0 0.219276 0 0.489796V1.71429C0 1.98481 0.219276 2.20408 0.489796 2.20408ZM0.489796 7.10204H13.2245C13.495 7.10204 13.7143 6.88277 13.7143 6.61225V5.38776C13.7143 5.11723 13.495 4.89796 13.2245 4.89796H0.489796C0.219276 4.89796 0 5.11723 0 5.38776V6.61225C0 6.88277 0.219276 7.10204 0.489796 7.10204ZM0.489796 12H13.2245C13.495 12 13.7143 11.7807 13.7143 11.5102V10.2857C13.7143 10.0152 13.495 9.79592 13.2245 9.79592H0.489796C0.219276 9.79592 0 10.0152 0 10.2857V11.5102C0 11.7807 0.219276 12 0.489796 12Z" fill="white"/>
</svg>
