<svg width="19" height="13" viewBox="0 0 19 13" fill="none" xmlns="http://www.w3.org/2000/svg">
<path d="M18.1026 2.03406C17.8899 1.23341 17.2634 0.602841 16.468 0.388849C15.0261 0 9.24446 0 9.24446 0C9.24446 0 3.46284 0 2.02096 0.388849C1.22549 0.602875 0.598982 1.23341 0.386344 2.03406C0 3.48529 0 6.51314 0 6.51314C0 6.51314 0 9.54098 0.386344 10.9922C0.598982 11.7929 1.22549 12.3972 2.02096 12.6112C3.46284 13 9.24446 13 9.24446 13C9.24446 13 15.0261 13 16.468 12.6112C17.2634 12.3972 17.8899 11.7929 18.1026 10.9922C18.4889 9.54098 18.4889 6.51314 18.4889 6.51314C18.4889 6.51314 18.4889 3.48529 18.1026 2.03406ZM7.35353 9.2622V3.76408L12.1858 6.5132L7.35353 9.2622Z" fill="#FABCA1"/>
</svg>
